<svg width="40" height="40" viewBox="0 0 40 40" fill="none" xmlns="http://www.w3.org/2000/svg">
<path fill-rule="evenodd" clip-rule="evenodd" d="M13.8667 0H26.1333C37.3333 0 40 2.66667 40 13.8667V26.1333C40 37.3333 37.3333 40 26.1333 40H13.8667C2.66667 40 0 37.3333 0 26.1333V13.8667C0 2.66667 2.66667 0 13.8667 0Z" fill="#2787F5"/>
<path fill-rule="evenodd" clip-rule="evenodd" d="M32.7571 13.7804C32.9424 13.1624 32.7571 12.7083 31.8751 12.7083H28.9584C28.2168 12.7083 27.8749 13.1005 27.6895 13.5331C27.6895 13.5331 26.2062 17.1484 24.105 19.4968C23.4253 20.1766 23.1162 20.3929 22.7454 20.3929C22.56 20.3929 22.2917 20.1766 22.2917 19.5587V13.7804C22.2917 13.0388 22.0764 12.7083 21.4584 12.7083H16.875C16.4116 12.7083 16.1329 13.0525 16.1329 13.3787C16.1329 14.0817 17.1834 14.2438 17.2917 16.2215V20.5166C17.2917 21.4583 17.1217 21.629 16.7508 21.629C15.7621 21.629 13.3569 17.9975 11.9304 13.8422C11.6509 13.0345 11.3705 12.7083 10.625 12.7083H7.70838C6.87505 12.7083 6.70837 13.1005 6.70837 13.5331C6.70837 14.3057 7.69719 18.1373 11.3125 23.2048C13.7226 26.6656 17.1184 28.5416 20.2084 28.5416C22.0624 28.5416 22.2917 28.1249 22.2917 27.4072V24.7916C22.2917 23.9583 22.4674 23.7919 23.0545 23.7919C23.487 23.7919 24.2286 24.0082 25.9591 25.6768C27.9367 27.6544 28.2627 28.5416 29.3751 28.5416H32.2917C33.1251 28.5416 33.5417 28.1249 33.3014 27.3027C33.0383 26.4831 32.0941 25.2941 30.8413 23.8846C30.1614 23.0812 29.1418 22.2161 28.8327 21.7834C28.4002 21.2273 28.5238 20.98 28.8327 20.4857C28.8327 20.4857 32.3863 15.4798 32.7571 13.7804Z" fill="white"/>
</svg>
