<svg id="Слой_1" data-name="Слой 1" xmlns="http://www.w3.org/2000/svg" viewBox="0 0 615 537.53"><defs><style>.cls-1{fill:#00b8f4;}.cls-2,.cls-3{fill:#fff;}.cls-3{stroke:#fff;stroke-miterlimit:10;}</style></defs><title>logo sl</title><rect class="cls-1" width="615" height="537.53"/><path class="cls-1" d="M327.09,31.93H565.48v504.6H53.18q0-124.77,0-249.56c0.09,0.84.19,1.68,0.28,2.53,1,9.31,1.54,18.7,3.06,27.93a226.86,226.86,0,0,0,24.15,70.46A247.51,247.51,0,0,0,129,451.06a260.47,260.47,0,0,0,37,29.17c0.38,0.25.78,0.45,1.17,0.68a0.82,0.82,0,0,0-.36-0.65,254.71,254.71,0,0,1-33.27-30.1,240.3,240.3,0,0,1-38.18-54.54,227.83,227.83,0,0,1-25.05-112.2A219.48,219.48,0,0,1,75,244.14c9.7-45,31.11-83.73,63.13-116.65a257.33,257.33,0,0,1,74.44-53A271.87,271.87,0,0,1,304,49.26a283.56,283.56,0,0,1,80.79,3.88,268.76,268.76,0,0,1,87.57,33.64,255.13,255.13,0,0,1,58.41,48.07c1.93,2.15,3.83,4.32,5.74,6.49A2.29,2.29,0,0,0,536,140,252.14,252.14,0,0,0,505,105a263.79,263.79,0,0,0-76.25-50.11,274.61,274.61,0,0,0-92.94-22.33C332.93,32.35,330,32.13,327.09,31.93ZM314.73,132.48c-0.68,1.78-1.19,3.47-1.94,5-2.12,4.44-5,6.08-9.83,5.75a11.49,11.49,0,0,1-3-.53c-5.87-2.05-11.79-4-17.55-6.3-11.27-4.54-22.55-8.92-34.89-9.62-11.08-.62-22,0.32-32.42,4.12-21.58,7.84-37,22.57-46.7,43.19a83.73,83.73,0,0,0-7.8,42.7,71.27,71.27,0,0,0,7.46,27.37c6.35,12.46,16,21.77,27.62,29.33,11,7.21,22.75,13.16,34.44,19.17a322.48,322.48,0,0,1,31.33,17.86c11.76,7.82,20.89,17.72,25.87,31.17,5.49,14.83,7,29.88,2.76,45.28a54.9,54.9,0,0,1-48.7,39.9c-18.69,1.36-34.85-4.19-48.64-16.79a99.94,99.94,0,0,1-21.85-29.7c-6.17-12.37-10.6-25.4-14.35-38.67-1.24-4.37-1.22-4.37-5.73-4a1.3,1.3,0,0,0-.34.17l-0.67,88.39c1.37,0,2.49-.06,3.6,0a1.7,1.7,0,0,0,1.9-1.23c3.37-7.43,9.91-10.79,17.79-8.55a110.25,110.25,0,0,1,14.36,5.69,136.14,136.14,0,0,0,62.11,12.06,102.33,102.33,0,0,0,32-6.26c12.12-4.58,22.75-11.1,30.4-22q22-31.46,16.76-69.32c-2.53-18.19-10.69-33.63-23.6-46.59-9.57-9.6-20.72-17.07-32.69-23.25-13.56-7-27.35-13.59-41-20.46-11.06-5.57-21-12.74-28.86-22.35-11.43-13.88-16.87-29.63-13.67-47.66,2.35-13.25,8.83-24.2,19.78-32.28,4.38-3.23,9.43-5,14.49-6.89a59.32,59.32,0,0,1,33.15-2.4c13.3,2.72,23.52,10.34,32,20.58a109.52,109.52,0,0,1,19.22,34.92c2.9,8.5,5.39,17.14,8.11,25.7a2.28,2.28,0,0,0,1.05,1.46,34,34,0,0,0,4.37.07l-1.54-85.07h-4.8ZM559.81,306.75l-0.4,1.6c-1.38,5.46-2.68,10.95-4.17,16.38-5.79,21.06-19.25,35.4-39.06,44-7.69,3.34-15.88,4.71-24.2,5.39-10.67.87-21.29,0.7-31.77-1.74-8-1.86-15.11-5.38-20.79-11.48-6.67-7.17-10-15.85-10.81-25.39-0.84-9.7-1.43-19.46-1.46-29.19q-0.2-55.11.12-110.22c0-6.09.93-12.19,1.65-18.27a37.8,37.8,0,0,1,1.78-6.16l0.38,0.1c-2.43,11.19-2.19,22.54-2.17,33.88,0.06,35.41.06,70.81,0.3,106.22a199.42,199.42,0,0,0,1.65,22.44,39.64,39.64,0,0,0,9.5,21.61c6,6.88,13.65,10.73,22.41,12.63,2.6,0.56,5.23,1,7.84,1.43a4.93,4.93,0,0,0-2.11-.78c-7.84-1.59-15.12-4.39-21.13-9.89-8.09-7.39-12-16.86-13-27.51-0.86-9.49-1.42-19-1.46-28.55-0.17-33.06-.12-66.13,0-99.19,0-7.88.37-15.76,0.82-23.63A34.43,34.43,0,0,1,437.46,166c4.87-9.13,12.81-13.63,22.77-15,2.62-.37,5.26-0.63,7.87-0.95v-3.68H360.73v3.59c3.49,0.46,7,.67,10.31,1.4,11.71,2.55,19.63,9.32,22.67,21.18,1.84,7.18,2.15,14.54,2.16,21.89q0.08,66.15,0,132.31a155.09,155.09,0,0,1-1.28,18.63c-1.67,13.48-10.19,22.62-23.49,25.48-3.36.72-6.82,1-10.45,1.44L363.3,400c0.53-.16.94-0.26,1.33-0.41,32.18-12.43,65.7-18,100-19.12a284.86,284.86,0,0,1,56.71,3.43,152.74,152.74,0,0,1,30.82,8c3.15,1.24,6.21,2.69,9.42,4.09,0.11-2.36.26-4.68,0.32-7q0.5-20.45,1-40.91,0.43-18.78.84-37.55C563.8,306.83,563.8,306.83,559.81,306.75Zm-380.69,132c0.26,0.36.34,0.49,0.45,0.61a67.44,67.44,0,0,0,33.86,19.73c13.14,3.27,26.48,3.36,39.86,2.15a271.57,271.57,0,0,0,40.26-6.83c21.54-5.28,43-10.86,64.49-16.31s43.32-10.51,65.42-13.64a297.7,297.7,0,0,1,51.6-3.21,200.42,200.42,0,0,1,47,6.86c5.93,1.64,12,3.09,17.35,6.26a16.69,16.69,0,0,0,9.78,2.33c9.54-.59,16.46-10.59,13.4-19.49-1.79-5.2-5.58-8-10.8-9.66A237.5,237.5,0,0,0,489.5,396.8a273.93,273.93,0,0,0-47.5,2.57A415.08,415.08,0,0,0,391,410c-21.88,5.91-43.34,13.14-64.86,20.19-16.27,5.33-32.56,10.61-49.21,14.67s-33.56,7-50.86,6.27a90.19,90.19,0,0,1-34.18-7.79c-3.85-1.76-7.53-3.89-11.35-5.88Zm31.23,27.91a53.85,53.85,0,0,0,14.23,11.21c10.65,5.81,22.21,7.78,34.17,7.93a162.64,162.64,0,0,0,37.87-4.22c17.22-3.89,34.36-8.12,51.47-12.44,23.31-5.89,46.6-11.81,70.5-14.94a251,251,0,0,1,37.28-2.33,170.39,170.39,0,0,1,36.72,4.38c7.38,1.77,14.69,3.7,21.54,7.25a12.9,12.9,0,0,0,18.73-12c-0.15-3.93-3.38-8.78-6.62-9.88a191.46,191.46,0,0,0-44.08-9.34,215.35,215.35,0,0,0-38.47,0,304.53,304.53,0,0,0-45.74,7.79c-20,4.87-39.56,11.27-59.12,17.65-16.88,5.51-33.74,11.1-51.1,15-14.5,3.23-29.11,5.33-44,3.7a72.73,72.73,0,0,1-30.76-10.27C211.78,465.44,211,465.41,210.35,466.69ZM244,489a43.44,43.44,0,0,0,16.44,11.4c8.9,3.52,18.21,4.21,27.64,3.79a180.43,180.43,0,0,0,34-5.29c13.65-3.28,27.24-6.79,40.86-10.18,18.6-4.63,37.3-8.72,56.47-10.22,15.21-1.19,30.35-.81,45.3,2.55,6.32,1.42,12.59,3,18.43,6,4.17,2.16,9.26.73,12.28-2.9a9.11,9.11,0,0,0-4.1-14.55,151.08,151.08,0,0,0-43.41-7.56,191.32,191.32,0,0,0-40.06,3.23,369.16,369.16,0,0,0-44.33,11.3c-16.55,5.14-33.07,10.4-49.69,15.3a133.23,133.23,0,0,1-29.64,5.3c-13.53.82-26.43-1.21-38.21-8.39C245.62,488.6,244.92,488.91,244,489ZM215.63,226.6A76.55,76.55,0,0,0,236.09,242c11.7,6.08,23.55,11.87,35.4,17.67,12.47,6.11,24.47,13,35.19,21.86,13.1,10.88,22.62,24.22,27.65,40.58,1,3.35,1.74,6.8,2.59,10.2a10.59,10.59,0,0,0-.18-2.19A80.25,80.25,0,0,0,316,287.28a107.31,107.31,0,0,0-28.29-22c-12.38-6.71-25.11-12.79-37.71-19.1-8.84-4.43-18-8.31-26.22-13.86C221,230.51,218.35,228.53,215.63,226.6Z"/><path class="cls-1" d="M53.18,269.37q0-118.72,0-237.44h254.4c-0.37.06-.73,0.14-1.1,0.17-10.18.93-20.4,1.5-30.52,2.85a254.81,254.81,0,0,0-49.71,12c-45.9,15.9-85,41.88-116.51,79A236.93,236.93,0,0,0,62.51,213a221.63,221.63,0,0,0-8.41,44.46C53.77,261.41,53.48,265.39,53.18,269.37Z"/><path class="cls-2" d="M53.18,269.37c0.31-4,.6-8,0.93-11.93A221.63,221.63,0,0,1,62.51,213a236.93,236.93,0,0,1,47.23-87.07c31.52-37.09,70.61-63.06,116.51-79a254.81,254.81,0,0,1,49.71-12C286.08,33.6,296.3,33,306.48,32.1c0.37,0,.73-0.11,1.1-0.17h19.52c2.92,0.2,5.84.42,8.75,0.6a274.61,274.61,0,0,1,92.94,22.33A263.79,263.79,0,0,1,505,105,252.14,252.14,0,0,1,536,140a2.29,2.29,0,0,1,.52,1.3c-1.91-2.16-3.81-4.34-5.74-6.49a255.13,255.13,0,0,0-58.41-48.07,268.76,268.76,0,0,0-87.57-33.64A283.56,283.56,0,0,0,304,49.26a271.87,271.87,0,0,0-91.36,25.19,257.33,257.33,0,0,0-74.44,53c-32,32.92-53.44,71.64-63.13,116.65a219.48,219.48,0,0,0-4.76,39.27,227.83,227.83,0,0,0,25.05,112.2,240.3,240.3,0,0,0,38.18,54.54,254.71,254.71,0,0,0,33.27,30.1,0.82,0.82,0,0,1,.36.65c-0.39-.22-0.8-0.43-1.17-0.68a260.47,260.47,0,0,1-37-29.17,247.51,247.51,0,0,1-48.35-63.18,226.86,226.86,0,0,1-24.15-70.46c-1.52-9.23-2.07-18.61-3.06-27.93-0.09-.84-0.19-1.69-0.28-2.53Q53.18,278.17,53.18,269.37Z"/><path class="cls-3" d="M314.73,132.48h4.8l1.54,85.07a34,34,0,0,1-4.37-.07,2.28,2.28,0,0,1-1.05-1.46c-2.71-8.56-5.21-17.2-8.11-25.7a109.52,109.52,0,0,0-19.22-34.92c-8.49-10.24-18.7-17.86-32-20.58a59.32,59.32,0,0,0-33.15,2.4c-5.06,1.87-10.11,3.66-14.49,6.89-11,8.08-17.43,19-19.78,32.28-3.2,18,2.25,33.78,13.67,47.66,7.91,9.61,17.81,16.78,28.86,22.35,13.64,6.87,27.42,13.45,41,20.46,12,6.18,23.12,13.65,32.69,23.25,12.91,13,21.07,28.39,23.6,46.59Q334,374.61,312,406c-7.65,10.94-18.27,17.45-30.4,22a102.33,102.33,0,0,1-32,6.26,136.14,136.14,0,0,1-62.11-12.06,110.25,110.25,0,0,0-14.36-5.69c-7.88-2.25-14.41,1.12-17.79,8.55a1.7,1.7,0,0,1-1.9,1.23c-1.11-.08-2.23,0-3.6,0l0.67-88.39a1.3,1.3,0,0,1,.34-0.17c4.51-.37,4.5-0.37,5.73,4,3.75,13.27,8.19,26.29,14.35,38.67a99.94,99.94,0,0,0,21.85,29.7c13.78,12.59,29.94,18.14,48.64,16.79a54.9,54.9,0,0,0,48.7-39.9c4.21-15.4,2.73-30.44-2.76-45.28-5-13.45-14.11-23.35-25.87-31.17a322.48,322.48,0,0,0-31.33-17.86c-11.69-6-23.42-12-34.44-19.17-11.57-7.56-21.27-16.87-27.62-29.33a71.27,71.27,0,0,1-7.46-27.37,83.73,83.73,0,0,1,7.8-42.7c9.75-20.62,25.11-35.35,46.7-43.19,10.46-3.8,21.34-4.75,32.42-4.12,12.34,0.7,23.62,5.07,34.89,9.62,5.76,2.32,11.68,4.25,17.55,6.3a11.49,11.49,0,0,0,3,.53c4.85,0.34,7.72-1.31,9.83-5.75C313.55,135.95,314.06,134.26,314.73,132.48Z"/><path class="cls-2" d="M559.81,306.75c4,0.08,4,.08,3.92,3.8q-0.42,18.78-.84,37.55-0.47,20.45-1,40.91c-0.06,2.32-.21,4.64-0.32,7-3.21-1.4-6.27-2.86-9.42-4.09a152.74,152.74,0,0,0-30.82-8,284.86,284.86,0,0,0-56.71-3.43c-34.32,1.16-67.83,6.7-100,19.12-0.39.15-.79,0.25-1.33,0.41l-2.67-27.75c3.63-.49,7.09-0.72,10.45-1.44,13.31-2.85,21.82-12,23.49-25.48a155.09,155.09,0,0,0,1.28-18.63q0.16-66.15,0-132.31c0-7.35-.32-14.71-2.16-21.89-3-11.87-11-18.63-22.67-21.18-3.36-.73-6.82-0.94-10.31-1.4v-3.59H468.1V150c-2.62.31-5.25,0.57-7.87,0.95-10,1.42-17.91,5.92-22.77,15a34.43,34.43,0,0,0-3.76,14.42c-0.45,7.87-.8,15.75-0.82,23.63-0.09,33.06-.14,66.13,0,99.19,0,9.52.6,19.07,1.46,28.55,1,10.64,4.91,20.12,13,27.51,6,5.49,13.29,8.3,21.13,9.89a4.93,4.93,0,0,1,2.11.78c-2.62-.47-5.25-0.86-7.84-1.43-8.76-1.9-16.45-5.75-22.41-12.63a39.64,39.64,0,0,1-9.5-21.61,199.42,199.42,0,0,1-1.65-22.44c-0.24-35.4-.24-70.81-0.3-106.22,0-11.34-.25-22.69,2.17-33.88l-0.38-.1a37.8,37.8,0,0,0-1.78,6.16c-0.72,6.07-1.62,12.17-1.65,18.27q-0.28,55.11-.12,110.22c0,9.73.62,19.49,1.46,29.19,0.83,9.54,4.14,18.22,10.81,25.39,5.68,6.11,12.79,9.62,20.79,11.48,10.48,2.44,21.1,2.61,31.77,1.74,8.32-.68,16.51-2.05,24.2-5.39,19.81-8.6,33.27-22.94,39.06-44,1.49-5.43,2.78-10.92,4.17-16.38Z"/><path class="cls-2" d="M179.12,438.78l1.38-1.26c3.82,2,7.5,4.12,11.35,5.88A90.19,90.19,0,0,0,226,451.19c17.31,0.73,34.16-2.2,50.86-6.27s32.94-9.34,49.21-14.67c21.52-7.05,43-14.29,64.86-20.19a415.08,415.08,0,0,1,51-10.68,273.93,273.93,0,0,1,47.5-2.57,237.5,237.5,0,0,1,62.26,10.78c5.21,1.62,9,4.46,10.8,9.66,3.06,8.91-3.86,18.91-13.4,19.49a16.69,16.69,0,0,1-9.78-2.33C534,431.23,528,429.78,522,428.14a200.42,200.42,0,0,0-47-6.86,297.7,297.7,0,0,0-51.6,3.21c-22.11,3.13-43.81,8.16-65.42,13.64s-43,11-64.49,16.31a271.57,271.57,0,0,1-40.26,6.83c-13.38,1.21-26.71,1.12-39.86-2.15a67.44,67.44,0,0,1-33.86-19.73C179.46,439.27,179.38,439.13,179.12,438.78Z"/><path class="cls-2" d="M210.35,466.69c0.68-1.29,1.43-1.25,2.58-.54a72.73,72.73,0,0,0,30.76,10.27c14.93,1.63,29.54-.47,44-3.7,17.36-3.87,34.22-9.47,51.1-15,19.56-6.38,39.11-12.77,59.12-17.65a304.53,304.53,0,0,1,45.74-7.79,215.35,215.35,0,0,1,38.47,0,191.46,191.46,0,0,1,44.08,9.34c3.24,1.1,6.46,5.94,6.62,9.88a12.9,12.9,0,0,1-18.73,12c-6.85-3.55-14.16-5.48-21.54-7.25a170.39,170.39,0,0,0-36.72-4.38,251,251,0,0,0-37.28,2.33c-23.89,3.12-47.19,9-70.5,14.94-17.11,4.32-34.25,8.55-51.47,12.44a162.64,162.64,0,0,1-37.87,4.22c-12-.15-23.52-2.12-34.17-7.93A53.85,53.85,0,0,1,210.35,466.69Z"/><path class="cls-2" d="M244,489c0.94-.1,1.64-0.41,2-0.18,11.78,7.18,24.68,9.21,38.21,8.39a133.23,133.23,0,0,0,29.64-5.3c16.62-4.9,33.14-10.16,49.69-15.3a369.16,369.16,0,0,1,44.33-11.3,191.32,191.32,0,0,1,40.06-3.23,151.08,151.08,0,0,1,43.41,7.56,9.11,9.11,0,0,1,4.1,14.55c-3,3.63-8.11,5.07-12.28,2.9-5.85-3-12.11-4.62-18.43-6-14.95-3.36-30.09-3.74-45.3-2.55-19.17,1.5-37.87,5.58-56.47,10.22-13.62,3.39-27.22,6.9-40.86,10.18a180.43,180.43,0,0,1-34,5.29c-9.43.43-18.74-.27-27.64-3.79A43.44,43.44,0,0,1,244,489Z"/><path class="cls-3" d="M215.63,226.6c2.71,1.93,5.39,3.92,8.15,5.77,8.25,5.55,17.37,9.43,26.22,13.86,12.6,6.31,25.33,12.38,37.71,19.1a107.31,107.31,0,0,1,28.29,22,80.25,80.25,0,0,1,20.74,42.89,10.59,10.59,0,0,1,.18,2.19c-0.86-3.4-1.56-6.85-2.59-10.2-5-16.36-14.56-29.7-27.65-40.58C296,272.67,284,265.82,271.49,259.72c-11.84-5.8-23.69-11.6-35.4-17.67A76.55,76.55,0,0,1,215.63,226.6Z"/></svg>