<?xml version="1.0" encoding="utf-8"?>
<!-- Generator: Adobe Illustrator 22.0.1, SVG Export Plug-In . SVG Version: 6.00 Build 0)  -->
<svg version="1.1" id="レイヤー_1" xmlns="http://www.w3.org/2000/svg" xmlns:xlink="http://www.w3.org/1999/xlink" x="0px"
	 y="0px" width="74.7px" height="25.7px" viewBox="0 0 74.7 25.7" style="enable-background:new 0 0 74.7 25.7;"
	 xml:space="preserve">
<style type="text/css">
	.st0{fill:#001F6B;}
	.st1{fill:#E40046;}
</style>
<title>AGC-Logo-Emblem_PANTONE</title>
<path class="st0" d="M18.8,25.3h8.1L18.5,0.7H8.6L0,25.3h8.1l1.4-5.1h7.9L18.8,25.3z M11,14.9l1.2-4.1l1.2-4.6h0.1l1.2,4.6l1.2,4.1
	H11z"/>
<path class="st0" d="M74.2,1.1c-2.2-0.8-4.6-1.2-7-1.1c-4.7,0-14.4,2.1-14.4,12.7c0,10.2,8.7,13,15.1,13c2.3,0,4.6-0.4,6.8-1.3
	l-1.2-5c-1.6,0.7-3.3,1-5,0.9c-2.7,0-7.9-0.9-7.9-7.6s5.3-7.3,7.2-7.3c1.8,0,3.5,0.3,5.1,1.1L74.2,1.1z"/>
<path class="st0" d="M48.7,1.3c-2.5-0.9-5.2-1.4-7.9-1.3c-4.6,0-14.2,2-14.2,12.7c0,10.5,8.8,12.9,14.3,12.9
	c2.9,0.1,5.9-0.3,8.7-1.2V9.9l-6.4,5.4v5c-0.9,0.2-1.7,0.2-2.6,0.2c-1.7,0-6.5-0.9-6.5-7.7c0-6.6,4.8-7.3,7.3-7.3
	c2.1,0,4.1,0.4,6,1.2L48.7,1.3z"/>
<polygon class="st1" points="38.3,15.3 43.1,15.3 49.6,9.9 38.3,9.9 "/>
</svg>
