<svg width="135" height="57" viewBox="0 0 135 57" fill="none" xmlns="http://www.w3.org/2000/svg">
<path d="M0 0H131C133.209 0 135 1.79086 135 4V53C135 55.2091 133.209 57 131 57H4C1.79086 57 0 55.2091 0 53V0Z" fill="white"/>
<path d="M111.438 36.922H22.5625C22.2515 36.922 22 36.5974 22 36.1934C22 35.7894 22.2515 35.4648 22.5625 35.4648H111.438C111.749 35.4648 112 35.7894 112 36.1934C112 36.5974 111.749 36.922 111.438 36.922Z" fill="url(#paint0_linear)"/>
<path d="M98.1296 33.3595H22.6353C22.2846 33.3595 22 33.0349 22 32.6309C22 32.2269 22.2846 31.9023 22.6353 31.9023H98.1363C98.487 31.9023 98.7716 32.2269 98.7716 32.6309C98.7649 33.0349 98.4804 33.3595 98.1296 33.3595Z" fill="url(#paint1_linear)"/>
<path d="M78.3296 29.8029H22.5824C22.2581 29.8029 22 29.4783 22 29.0743C22 28.6703 22.2647 28.3457 22.5824 28.3457H78.323C78.6472 28.3457 78.9053 28.6703 78.9053 29.0743C78.9053 29.4783 78.6472 29.8029 78.3296 29.8029Z" fill="url(#paint2_linear)"/>
<path d="M25.3287 43.4205C25.1632 43.6324 24.925 43.798 24.614 43.9106C24.3029 44.0232 23.9588 44.0762 23.575 44.0696C23.1184 44.063 22.7478 43.9106 22.4699 43.5993C22.1919 43.288 22.0331 42.884 22.0066 42.3674C21.9934 42.1819 22 42.0031 22.0265 41.8309L22.1125 41.2745C22.2184 40.5857 22.4632 40.0359 22.8603 39.6319C23.2507 39.2212 23.7404 39.0225 24.3162 39.0358C24.7662 39.0424 25.1235 39.1749 25.3949 39.4332C25.6662 39.6915 25.8052 40.0425 25.8184 40.4797H25.4147C25.4015 40.1353 25.2956 39.8703 25.1037 39.6782C24.9118 39.4862 24.6471 39.3868 24.2963 39.3802C23.8397 39.3669 23.4493 39.5325 23.1316 39.877C22.814 40.2214 22.6088 40.6916 22.5162 41.2877L22.4368 41.811C22.4169 41.9567 22.4037 42.109 22.4103 42.2614C22.4169 42.7052 22.5228 43.0562 22.7346 43.3211C22.9463 43.5794 23.2309 43.7119 23.5882 43.7185C24.164 43.7318 24.6074 43.5861 24.9184 43.2946L25.1434 42.0229H23.8662L23.9257 41.6719H25.6132L25.3287 43.4205Z" fill="#233980"/>
<path d="M28.5702 43.6526H30.9195L30.8599 44.0037H28.0938L28.9474 39.0957H29.3643L28.5702 43.6526Z" fill="#233980"/>
<path d="M36.2537 42.626H34.1096L33.3816 44.0037H32.9316L35.5787 39.0957H35.9758L36.9221 44.0037H36.5118L36.2537 42.626ZM34.2949 42.2749H36.1875L35.7044 39.619L34.2949 42.2749Z" fill="#233980"/>
<path d="M39.6355 43.6528H42.5605L42.4944 44.0039H39.0664L39.126 43.6727L42.6664 39.4536H39.9399L40.0061 39.1025H43.2488L43.1958 39.4138L39.6355 43.6528Z" fill="#233980"/>
<path d="M45.631 44.0037H45.2207L46.0744 39.0957H46.4847L45.631 44.0037Z" fill="#233980"/>
<path d="M52.215 44.0037H51.818L49.8062 39.7978L49.0783 44.0037H48.668L49.5216 39.0957H49.9187L51.9305 43.3016L52.6584 39.0957H53.0687L52.215 44.0037Z" fill="#233980"/>
<path d="M58.733 43.4215C58.5675 43.6334 58.3293 43.799 58.0183 43.9116C57.7072 44.0242 57.3631 44.0772 56.9793 44.0706C56.5227 44.0639 56.1521 43.9116 55.8742 43.6003C55.5896 43.2956 55.4374 42.885 55.4109 42.3683C55.3977 42.1829 55.4043 42.004 55.4308 41.8318L55.5168 41.2755C55.6227 40.5866 55.8675 40.0369 56.2646 39.6329C56.655 39.2222 57.1447 39.0235 57.7205 39.0368C58.1705 39.0434 58.5278 39.1758 58.7992 39.4342C59.0705 39.6925 59.2095 40.0435 59.2227 40.4807H58.819C58.8058 40.1362 58.6999 39.8713 58.508 39.6792C58.3161 39.4871 58.0514 39.3878 57.7006 39.3812C57.244 39.3679 56.8536 39.5335 56.5359 39.8779C56.2183 40.2223 56.0131 40.6926 55.9205 41.2887L55.8411 41.812C55.8212 41.9577 55.808 42.11 55.8146 42.2624C55.8212 42.7061 55.9271 43.0572 56.1389 43.3221C56.3506 43.5804 56.6352 43.7129 56.9925 43.7195C57.5683 43.7328 58.0117 43.587 58.3227 43.2956L58.5477 42.0239H57.2705L57.33 41.6729H59.0175L58.733 43.4215Z" fill="#233980"/>
<path d="M65.379 44.0037H64.9688L65.8224 39.0957H66.2327L65.379 44.0037Z" fill="#233980"/>
<path d="M71.9697 44.0037H71.5726L69.5609 39.7978L68.8329 44.0037H68.416L69.2697 39.0957H69.6668L71.6785 43.3016L72.4065 39.0957H72.8168L71.9697 44.0037Z" fill="#233980"/>
<path d="M79.6858 39.0957L80.6851 43.4142L83.1866 39.0957H83.7425L82.8888 44.0037H82.4851L82.8557 41.851L83.2594 39.7316L80.7645 44.0037H80.4469L79.4277 39.6984L79.0836 41.8775L78.713 44.0103H78.3027L79.1564 39.1023H79.6858V39.0957Z" fill="#233980"/>
<path d="M87.5408 44.0699C87.0842 44.0633 86.7202 43.9043 86.4489 43.593C86.1776 43.2817 86.0386 42.871 86.0122 42.3544C86.0055 42.1756 86.0122 41.9967 86.0386 41.8179L86.1048 41.3543C86.2041 40.6721 86.4555 40.1091 86.846 39.6785C87.2497 39.2348 87.746 39.0228 88.335 39.0294C88.6328 39.0361 88.8975 39.1089 89.1225 39.248C89.3475 39.3871 89.5261 39.5924 89.6519 39.864C89.7776 40.1356 89.8438 40.427 89.857 40.7449C89.8636 40.937 89.8504 41.1291 89.8239 41.3079L89.7445 41.8245C89.6651 42.2882 89.5195 42.6922 89.3078 43.0366C89.096 43.381 88.8379 43.6394 88.5335 43.8116C88.2357 43.997 87.9048 44.0765 87.5408 44.0699ZM89.4203 41.2814C89.4401 41.1423 89.4467 40.9966 89.4533 40.8509C89.4533 40.5793 89.4136 40.3276 89.3276 40.1024C89.2416 39.8772 89.1158 39.705 88.9438 39.5858C88.7717 39.4666 88.5666 39.4004 88.3217 39.3937C87.8717 39.3805 87.4879 39.5461 87.1769 39.8772C86.8592 40.2084 86.6541 40.6588 86.5482 41.2284C86.4688 41.6921 86.4291 42.0299 86.4291 42.2484C86.4291 42.6988 86.5283 43.0565 86.7269 43.3148C86.9254 43.5731 87.2033 43.7056 87.5673 43.7122C88.0438 43.7255 88.4408 43.5532 88.7519 43.1956C89.0629 42.8379 89.268 42.3677 89.3541 41.7782L89.4203 41.2814Z" fill="#233980"/>
<path d="M96.0568 39.4467H94.4289L93.6347 44.0037H93.2245L94.0186 39.4467H92.3906L92.4568 39.0957H96.123L96.0568 39.4467Z" fill="#233980"/>
<path d="M98.2814 44.0037H97.8711L98.7248 39.0957H99.1351L98.2814 44.0037Z" fill="#233980"/>
<path d="M103.019 44.0699C102.563 44.0633 102.199 43.9043 101.927 43.593C101.656 43.2817 101.517 42.871 101.491 42.3544C101.484 42.1756 101.491 41.9967 101.517 41.8179L101.583 41.3543C101.683 40.6721 101.934 40.1091 102.325 39.6785C102.728 39.2348 103.225 39.0228 103.813 39.0294C104.111 39.0361 104.376 39.1089 104.601 39.248C104.826 39.3871 105.005 39.5924 105.13 39.864C105.256 40.1356 105.322 40.427 105.336 40.7449C105.342 40.937 105.329 41.1291 105.302 41.3079L105.223 41.8245C105.144 42.2882 104.998 42.6922 104.786 43.0366C104.575 43.381 104.316 43.6394 104.012 43.8116C103.714 43.997 103.377 44.0765 103.019 44.0699ZM104.899 41.2814C104.919 41.1423 104.925 40.9966 104.932 40.8509C104.932 40.5793 104.892 40.3276 104.806 40.1024C104.72 39.8772 104.594 39.705 104.422 39.5858C104.25 39.4666 104.045 39.4004 103.8 39.3937C103.35 39.3805 102.966 39.5461 102.655 39.8772C102.338 40.2084 102.133 40.6588 102.027 41.2284C101.947 41.6921 101.908 42.0299 101.908 42.2484C101.908 42.6988 102.007 43.0565 102.205 43.3148C102.404 43.5731 102.682 43.7056 103.046 43.7122C103.522 43.7255 103.919 43.5532 104.23 43.1956C104.541 42.8379 104.747 42.3677 104.833 41.7782L104.899 41.2814Z" fill="#233980"/>
<path d="M111.151 44.0037H110.754L108.743 39.7978L108.015 44.0037H107.598L108.451 39.0957H108.848L110.86 43.3016L111.588 39.0957H111.998L111.151 44.0037Z" fill="#233980"/>
<path d="M29.9809 13.6557V16.4243C28.9419 15.8216 27.8633 15.5169 26.7515 15.5169C26.2485 15.5169 25.8713 15.6229 25.6066 15.8216C25.3419 16.0269 25.2096 16.2918 25.2096 16.6098C25.2096 16.9277 25.3684 17.2191 25.6927 17.4642C26.0103 17.7159 26.4934 17.9808 27.1353 18.2656C27.5324 18.4445 27.8633 18.6034 28.128 18.7359C28.3927 18.8684 28.6905 19.0538 29.0346 19.2923C29.3721 19.5307 29.6434 19.7824 29.8419 20.0407C30.0405 20.3056 30.2125 20.6302 30.3515 21.0143C30.4905 21.3985 30.5633 21.8158 30.5633 22.2662C30.5633 23.4319 30.1331 24.379 29.2728 25.1076C28.4125 25.8296 27.2743 26.1939 25.8515 26.1939C24.3228 26.1939 23.0853 25.9223 22.1191 25.3858V22.4053C23.2838 23.2531 24.5279 23.677 25.8515 23.677C26.3015 23.677 26.6721 23.5577 26.9699 23.3193C27.2677 23.0809 27.4133 22.7696 27.4133 22.3854C27.4133 22.2596 27.3934 22.1337 27.3537 22.0211C27.314 21.9085 27.2478 21.7959 27.1419 21.6966C27.036 21.5972 26.9434 21.5045 26.8441 21.4382C26.7449 21.3654 26.6059 21.2859 26.4206 21.1866C26.2353 21.0872 26.0765 21.0077 25.9507 20.9481C25.825 20.8819 25.6331 20.7958 25.3816 20.6766C25.1302 20.564 24.9316 20.4712 24.7794 20.405C23.9456 20.0208 23.2772 19.5439 22.7676 18.981C22.2515 18.418 22 17.6695 22 16.7356C22 15.6163 22.4103 14.7155 23.2309 14.0333C24.0515 13.3444 25.1831 13 26.6324 13C27.9294 13 29.0412 13.2186 29.9809 13.6557Z" fill="#233980"/>
<path d="M38.2455 23.6776H43.3213V26.0488H35.2676V13.0801H43.2419V15.4446H38.2455V18.3921H42.7058V20.7368H38.2455V23.6776V23.6776Z" fill="#233980"/>
<path d="M48.6113 26.0488V13.0801H51.5694V26.0488H48.6113ZM55.1694 19.5644L59.7621 26.0488H56.0496L51.7018 19.6042L55.8908 13.0801H59.4114L55.1694 19.5644Z" fill="#233980"/>
<path d="M71.6983 21.0414V13.0801H74.6564V21.0282C74.6564 22.7238 74.18 24.0154 73.2336 24.9029C72.2873 25.7971 71.0035 26.2408 69.3888 26.2408C67.8005 26.2408 66.5233 25.7971 65.5637 24.9161C64.6042 24.0286 64.1211 22.7768 64.1211 21.1607V13.0801H67.0792V21.1408C67.0792 22.7437 67.8468 23.5451 69.3888 23.5451C70.9307 23.5451 71.6983 22.7105 71.6983 21.0414Z" fill="#233980"/>
<path d="M86.6218 26.0488L83.8159 21.5448H82.9093V26.0488H79.9512V13.0801H84.4313C85.8806 13.0801 87.0453 13.4642 87.9188 14.2326C88.799 15.0009 89.2358 16.001 89.2358 17.233C89.2358 19.0809 88.4483 20.3592 86.8733 21.0613L90.1622 26.0488H86.6218ZM82.9093 15.4844V19.1405H84.3122C85.596 19.1405 86.238 18.5113 86.238 17.2528C86.238 16.7031 86.0725 16.2659 85.735 15.9546C85.4041 15.6433 84.9475 15.4844 84.3718 15.4844H82.9093Z" fill="#233980"/>
<path d="M94.8262 26.0488V13.0801H97.7843V26.0488H94.8262Z" fill="#233980"/>
<path d="M111.999 13.0801V15.4645H108.849V26.0488H105.871V15.4645H102.701V13.0801H111.999V13.0801Z" fill="#233980"/>
<defs>
<linearGradient id="paint0_linear" x1="22" y1="36.1948" x2="112" y2="36.1948" gradientUnits="userSpaceOnUse">
<stop stop-color="#233980"/>
<stop offset="0.75" stop-color="#233980"/>
<stop offset="1" stop-color="#233980" stop-opacity="0"/>
</linearGradient>
<linearGradient id="paint1_linear" x1="22" y1="32.6348" x2="98.7649" y2="32.6348" gradientUnits="userSpaceOnUse">
<stop stop-color="#7AB4AF"/>
<stop offset="0.75" stop-color="#7AB4AF"/>
<stop offset="0.8271" stop-color="#65B2B1" stop-opacity="0.6653"/>
<stop offset="0.9143" stop-color="#55B0B2" stop-opacity="0.2872"/>
<stop offset="0.9804" stop-color="#4FAFB3" stop-opacity="0"/>
</linearGradient>
<linearGradient id="paint2_linear" x1="22" y1="29.074" x2="78.9119" y2="29.074" gradientUnits="userSpaceOnUse">
<stop stop-color="#EF2D35"/>
<stop offset="0.75" stop-color="#F25C19"/>
<stop offset="0.9804" stop-color="#F25C19" stop-opacity="0"/>
</linearGradient>
</defs>
</svg>
