<svg width="40" height="40" viewBox="0 0 40 40" fill="none" xmlns="http://www.w3.org/2000/svg">
<path d="M20.017 11.7803C15.3162 11.7803 11.4897 15.5544 11.4897 20.2136C11.4897 24.8728 15.3059 28.647 20.017 28.647C24.7282 28.647 28.5444 24.8728 28.5444 20.2136C28.5444 15.5544 24.8619 11.7803 20.017 11.7803ZM20.017 26.6022C16.3449 26.6022 13.547 23.6928 13.547 20.2035C13.547 16.5717 16.4889 13.8047 20.017 13.8047C23.5452 13.8047 26.4871 16.7141 26.4871 20.2035C26.6208 23.6928 23.6892 26.6022 20.017 26.6022Z" fill="#1B7496"/>
<path d="M37.7917 15.412L34.4075 14.5371L36.4648 11.1902C37.3494 10.1729 37.1951 8.71821 36.3208 7.84334L32.9469 4.22177C32.0623 3.3469 30.5913 3.20448 29.5627 4.07935L26.1785 5.81892L25.2939 2.3296C25.1499 1.01729 24.1213 0 22.7943 0H17.7952C16.4683 0 15.4397 1.01729 15.2957 2.3296L14.411 5.81892L10.5948 4.07935C9.71022 3.35707 8.23929 3.35707 7.21066 4.22177L3.68248 7.71109C2.79786 8.58596 2.65385 10.0407 3.53847 11.058L5.29742 14.1099L2.35555 14.9847C1.02863 15.1272 0 16.1445 0 17.4568V22.4008C0 23.7131 1.02863 24.7304 2.35555 24.8728L5.73973 25.7477L3.68248 29.0946C2.79786 30.1119 2.95215 31.5666 3.82649 32.4415L7.35467 35.9308C8.23929 36.8057 9.85423 36.9481 10.7388 36.0732L13.9687 34.3337L14.9974 37.823C15.1414 39.1353 16.17 40 17.4969 40H22.496C23.823 40 24.8516 38.9827 24.9956 37.6704L25.7259 34.7609L28.8118 36.5005C29.8404 37.2228 31.3114 37.2228 32.196 36.3581L35.7242 32.8688C36.1665 32.4313 36.4545 31.7091 36.4545 31.1292C36.4545 30.5493 36.3105 29.9695 35.8682 29.532L33.9549 26.1851L37.6271 25.1679C38.954 25.0254 39.9827 24.0081 39.9827 22.6958V17.7518C40.1472 16.5717 39.1186 15.5544 37.7917 15.412ZM37.2054 22.5331L29.5627 24.5676L30.5913 26.3072L33.5332 31.2513L30.4473 34.3032L23.9773 30.6714L22.2183 37.355H17.8055L15.6042 30.234L8.99019 33.8657L5.90431 30.8138L10.1628 24.1302L2.81843 22.238V17.8739L9.5765 15.9817L5.90431 9.58291L8.99019 6.53103L15.8923 10.1628L17.8055 3.04171H22.2183L24.1316 10.1628L31.0336 6.53103L34.1195 9.58291L29.861 16.2665L37.2054 18.1587V22.5331Z" fill="#1B7496"/>
</svg>
